<?xml version="1.0" standalone="no"?>
<!DOCTYPE svg PUBLIC "-//W3C//DTD SVG 20010904//EN"
 "http://www.w3.org/TR/2001/REC-SVG-20010904/DTD/svg10.dtd">
<svg version="1.0" xmlns="http://www.w3.org/2000/svg"
 width="416.000000pt" height="416.000000pt" viewBox="0 0 416.000000 416.000000"
 preserveAspectRatio="xMidYMid meet">
<metadata>
Created by potrace 1.14, written by Peter Selinger 2001-2017
</metadata>
<g transform="translate(0.000000,416.000000) scale(0.100000,-0.100000)"
fill="#000000" stroke="none">
<path d="M1919 3926 c-2 -2 -29 -7 -59 -10 -100 -12 -124 -16 -210 -37 -697
-174 -1232 -743 -1365 -1453 -9 -46 -18 -101 -21 -123 -9 -66 -11 -364 -4
-407 5 -22 11 -65 14 -95 9 -72 17 -103 26 -99 4 2 75 48 158 103 l150 99 0
161 c-1 297 64 535 213 790 139 236 363 444 610 565 82 40 279 114 279 104 0
-2 8 0 18 5 57 30 364 52 507 36 633 -71 1146 -536 1285 -1165 26 -121 34
-206 32 -360 l-1 -135 155 -103 c86 -57 158 -102 160 -99 7 7 17 63 33 192 15
119 4 414 -19 505 -5 19 -11 51 -14 70 -9 62 -62 232 -100 325 -209 504 -640
898 -1151 1053 -87 27 -146 40 -295 68 -38 7 -395 16 -401 10z"/>
<path d="M1929 3506 c-2 -2 -24 -6 -49 -9 -69 -8 -173 -34 -272 -68 -353 -122
-678 -428 -821 -771 -23 -55 -13 -46 23 20 17 31 56 92 88 134 250 335 619
548 1027 593 54 6 285 7 312 1 11 -2 43 -8 70 -11 26 -4 66 -11 88 -17 22 -6
49 -12 59 -14 102 -19 332 -125 448 -206 188 -130 354 -310 458 -495 13 -24
25 -41 27 -39 10 9 -119 236 -177 314 -208 277 -517 478 -830 541 -30 6 -68
13 -85 17 -34 7 -359 16 -366 10z"/>
<path d="M1810 2552 c-370 -248 -1386 -929 -1618 -1084 -135 -91 -190 -133
-185 -142 5 -7 48 -74 97 -148 l89 -136 48 31 c27 18 266 178 531 356 1098
738 1298 871 1308 871 6 0 180 -114 388 -253 207 -140 629 -423 938 -629 l560
-376 90 135 c49 75 92 142 97 149 7 13 -22 33 -880 607 l-362 242 -1 183 0
183 -117 -3 -117 -3 0 -98 c0 -72 -3 -97 -12 -93 -6 2 -136 88 -288 191 -152
102 -282 188 -289 191 -7 2 -131 -76 -277 -174z"/>
<path d="M1834 2037 c-132 -89 -358 -241 -501 -337 -144 -96 -260 -176 -258
-178 2 -2 54 25 117 61 62 35 120 67 128 71 8 4 24 12 35 19 11 7 76 43 145
81 144 80 126 70 377 209 105 59 197 107 203 107 6 0 118 -59 248 -132 298
-165 289 -160 462 -255 183 -101 223 -123 235 -133 12 -9 45 -21 45 -16 0 2
-141 97 -312 212 -172 115 -315 211 -318 214 -7 8 -358 240 -362 240 -2 -1
-111 -74 -244 -163z"/>
<path d="M1780 1515 l0 -125 125 0 125 0 0 125 0 125 -125 0 -125 0 0 -125z"/>
<path d="M2130 1515 l0 -125 125 0 125 0 0 125 0 125 -125 0 -125 0 0 -125z"/>
<path d="M680 1209 c-74 -49 -139 -94 -143 -99 -10 -9 5 -36 83 -140 296 -402
751 -668 1240 -727 124 -15 429 -8 530 12 334 67 595 188 840 388 169 138 423
439 393 467 -16 15 -277 190 -283 190 -4 0 -11 -10 -17 -23 -19 -41 -130 -181
-199 -251 -226 -225 -538 -386 -819 -421 -27 -4 -61 -8 -75 -11 -33 -6 -278
-6 -310 0 -14 3 -55 10 -91 16 -369 58 -753 305 -957 616 -26 40 -49 73 -52
73 -3 1 -66 -40 -140 -90z"/>
<path d="M1782 1174 l3 -126 98 1 c53 0 108 0 122 1 l25 0 0 124 0 125 -125 0
-126 1 3 -126z"/>
<path d="M2130 1174 l0 -124 28 -1 c55 -1 168 -1 195 0 l27 1 0 124 0 125
-125 -1 -125 0 0 -124z"/>
</g>
</svg>
